<?xml version="1.0" encoding="utf-8"?>
<!-- Generator: Adobe Illustrator 25.3.1, SVG Export Plug-In . SVG Version: 6.00 Build 0)  -->
<svg version="1.1" id="Layer_1" xmlns="http://www.w3.org/2000/svg" xmlns:xlink="http://www.w3.org/1999/xlink" x="0px" y="0px"
	 viewBox="0 0 1440 481" style="enable-background:new 0 0 1440 481;" xml:space="preserve">
<style type="text/css">
	.st0{fill-rule:evenodd;clip-rule:evenodd;fill:#87CEEB;}
	.st1{opacity:0.1116;fill-rule:evenodd;clip-rule:evenodd;fill:#1919EB;enable-background:new    ;}
	.st2{opacity:0.1116;fill-rule:evenodd;clip-rule:evenodd;fill:#191964;enable-background:new    ;}
</style>
<desc>Created with Sketch.</desc>
<g id="_x31_" transform="translate(0.000000, 2629.000000)">
	<rect id="Rectangle" x="0.5" y="-2628.5" class="st0" width="1439" height="480"/>
	<path id="Rectangle_1_" class="st1" d="M1335-2529h106l-1,218h-106c-2.8,0-5-2.2-5-5v-208C1329-2526.8,1331.2-2529,1335-2529z"/>
	<path id="Rectangle-Copy-7" class="st2" d="M1286-2503h153v218h-153c-2.8,0-5-2.2-5-5v-208C1281-2500.8,1283.2-2503,1286-2503z"/>
	<path id="Rectangle-Copy-10" class="st2" d="M1-2579h108c2.8,0,5,2.2,5,5v208c0,2.8-2.2,5-5,5H1V-2579z"/>
	<path id="Rectangle-Copy-11" class="st1" d="M0-2553h61c2.8,0,5,2.2,5,5v208c0,2.8-2.2,5-5,5H0V-2553z"/>
</g>
<path id="Rectangle-Copy-10_1_" class="st2" d="M621.5,480V372c0-2.8,2.2-5,5-5l208,0c2.8,0,5,2.2,5,5v108L621.5,480z"/>
<path id="Rectangle-Copy-11_1_" class="st1" d="M647.5,481v-61c0-2.8,2.2-5,5-5l208,0c2.8,0,5,2.2,5,5v61L647.5,481z"/>
</svg>
